<svg width="763" height="758" viewBox="0 0 763 758" fill="none" xmlns="http://www.w3.org/2000/svg">
<path d="M75.7947 449.747H35.3733C15.8372 449.747 0 433.909 0 414.373C0 394.837 15.8372 379 35.3734 379H37.8974C58.8275 379 75.7947 362.033 75.7947 341.103V212.233C75.7947 153.628 123.303 106.12 181.907 106.12C240.512 106.12 288.02 153.628 288.02 212.233V639.249C288.02 654.597 300.462 667.04 315.811 667.04C331.16 667.04 343.603 654.597 343.603 639.249V108.639C343.603 48.6394 392.242 0 452.242 0C512.241 0 560.881 48.6394 560.881 108.639V538.182C560.881 553.531 573.323 565.973 588.672 565.973C604.021 565.973 616.464 553.531 616.464 538.182V381.522C616.464 341.057 649.267 308.253 689.732 308.253H725.1C746.032 308.253 763 325.403 763 346.334C763 367.067 746.193 384.053 725.46 384.053C704.45 384.053 687.531 401.295 687.927 422.301L690.238 544.786C691.347 603.603 643.972 651.88 585.145 651.88C527.093 651.88 480.033 604.82 480.033 546.768V121.163C480.033 104.482 466.511 90.96 449.83 90.96C433.06 90.96 419.501 104.622 419.628 121.392L423.643 651.489C424.088 710.182 376.631 758 317.936 758C259.553 758 212.225 710.672 212.225 652.289V222.345C212.225 205.6 198.651 192.027 181.907 192.027C165.163 192.027 151.589 205.6 151.589 222.345V373.952C151.589 415.812 117.655 449.747 75.7947 449.747Z" fill="white"/>
</svg>
